<svg width="45" height="46" viewBox="0 0 45 46" fill="none" xmlns="http://www.w3.org/2000/svg">
<g clip-path="url(#clip0_1680_15919)">
<circle cx="22.498" cy="23.0917" r="22.4355" fill="#5112AD"/>
<rect x="13.3906" y="3.9375" width="6.18703" height="6.18703" rx="3.09351" fill="#FFE604"/>
<rect x="25.4141" y="3.9375" width="6.18703" height="6.18703" rx="3.09351" fill="#FFE604"/>
<mask id="mask0_1680_15919" style="mask-type:alpha" maskUnits="userSpaceOnUse" x="0" y="0" width="45" height="46">
<circle cx="22.5058" cy="23.0839" r="22.4355" fill="black"/>
</mask>
<g mask="url(#mask0_1680_15919)">
<path fill-rule="evenodd" clip-rule="evenodd" d="M30.3306 28.1247C32.627 27.9681 36.2452 25.8184 34.3106 20.1712C33.3274 17.4489 31.4093 15.0483 28.7002 13.4981C22.6393 10.03 14.9145 12.1318 11.4464 18.1927C10.5899 19.6894 10.0732 21.2877 9.87182 22.8982L-6.46933 22.8982L-6.46933 28.1283L10.3169 28.1283C11.2183 31.1146 13.2198 33.7749 16.141 35.4464C18.262 36.6601 20.5867 37.1916 22.8615 37.1101L59.2434 37.1101L59.2434 31.7107L22.7885 31.7107L22.7885 31.6931C21.4509 31.7626 20.0784 31.4615 18.8295 30.7469C18.5482 30.5859 18.2817 30.4088 18.0307 30.2176L17.9811 30.1711C17.473 29.6954 17.0631 29.3116 16.7892 29.0094C16.6719 28.8638 16.5608 28.7141 16.4558 28.5608C16.3445 28.331 16.422 28.1913 16.7377 28.1283L22.7885 28.1283L22.7885 28.1247L30.3306 28.1247ZM28.8938 22.8982L16.6663 22.8982C14.9021 22.7414 16.0256 20.9872 16.7293 20.0105C18.9061 17.2262 22.8536 16.3892 26.0113 18.196C27.59 19.0994 28.699 20.5078 29.2512 22.1012C29.3243 22.4857 29.2451 22.7868 28.8938 22.8982Z" fill="#FFE604"/>
</g>
</g>
<defs>
<clipPath id="clip0_1680_15919">
<rect width="45" height="45" fill="white" transform="translate(0 0.5)"/>
</clipPath>
</defs>
</svg>
