<svg width="100" height="100" viewBox="0 0 100 100" fill="none" xmlns="http://www.w3.org/2000/svg">
<g filter="url(#filter0_b_5_2754)">
<rect x="1.66667" y="1.66667" width="96.6667" height="96.6667" rx="48.3333" stroke="white" stroke-width="3.33333"/>
<path d="M77.4275 61.1115L62.9658 54.6307C62.3105 54.3499 61.5956 54.237 60.8857 54.3023C60.1758 54.3675 59.4935 54.6087 58.9003 55.0042C58.8401 55.0428 58.7828 55.0858 58.7289 55.1327L51.1705 61.5615C51.0921 61.6043 51.0048 61.6282 50.9155 61.6314C50.8262 61.6346 50.7374 61.617 50.6562 61.5799C45.7978 59.2349 40.765 54.2327 38.4109 49.4417C38.3717 49.3617 38.3513 49.2737 38.3513 49.1846C38.3513 49.0954 38.3717 49.0075 38.4109 48.9274L44.8611 41.2741C44.9074 41.2174 44.9503 41.1582 44.9897 41.0965C45.3796 40.5011 45.6152 39.8179 45.675 39.1087C45.7349 38.3995 45.6172 37.6865 45.3325 37.0341L38.8976 22.5969C38.5322 21.7446 37.9002 21.0339 37.0965 20.5713C36.2928 20.1087 35.3608 19.9193 34.4403 20.0315C30.4399 20.5574 26.7678 22.522 24.1102 25.5581C21.4527 28.5942 19.9916 32.4941 20 36.529C20 60.4993 39.5007 80 63.4709 80C67.5056 80.0077 71.4051 78.5464 74.4411 75.889C77.4771 73.2316 79.4418 69.5599 79.9684 65.5597C80.0803 64.6435 79.8934 63.7156 79.4356 62.9142C78.9778 62.1127 78.2735 61.4805 77.4275 61.1115Z" fill="white"/>
</g>
<defs>
<filter id="filter0_b_5_2754" x="-333.333" y="-333.333" width="766.667" height="766.667" filterUnits="userSpaceOnUse" color-interpolation-filters="sRGB">
<feFlood flood-opacity="0" result="BackgroundImageFix"/>
<feGaussianBlur in="BackgroundImageFix" stdDeviation="166.667"/>
<feComposite in2="SourceAlpha" operator="in" result="effect1_backgroundBlur_5_2754"/>
<feBlend mode="normal" in="SourceGraphic" in2="effect1_backgroundBlur_5_2754" result="shape"/>
</filter>
</defs>
</svg>
