<svg width="111" height="110" viewBox="0 0 111 110" fill="none" xmlns="http://www.w3.org/2000/svg">
<path d="M90.9394 43.8281H19.2744V56.5148H90.9394V43.8281Z" fill="white" stroke="#5112AD" stroke-width="4" stroke-linecap="round" stroke-linejoin="round"/>
<path d="M86.6746 56.5181H23.5713V93.0747H86.6746V56.5181Z" fill="white" stroke="#5112AD" stroke-width="4" stroke-linecap="round" stroke-linejoin="round"/>
<path d="M53.8818 42.0274C56.6569 39.5409 54.689 32.8181 49.4864 27.0115C44.2837 21.2049 37.8165 18.5134 35.0414 20.9998C32.2663 23.4863 34.2342 30.2091 39.4368 36.0157C44.6395 41.8223 51.1067 44.5138 53.8818 42.0274Z" fill="white" stroke="#5112AD" stroke-width="4" stroke-linecap="round" stroke-linejoin="round"/>
<path d="M71.0473 37.2743C76.8539 32.0717 79.5454 25.6044 77.059 22.8293C74.5725 20.0542 67.8497 22.0221 62.0431 27.2248C56.2365 32.4274 53.545 38.8947 56.0314 41.6698C58.5179 44.4449 65.2407 42.477 71.0473 37.2743Z" fill="white" stroke="#5112AD" stroke-width="4" stroke-linecap="round" stroke-linejoin="round"/>
<path d="M55.0957 37.7695V93.0629" stroke="#5112AD" stroke-width="4" stroke-linecap="round" stroke-linejoin="round"/>
</svg>
