<svg width="111" height="110" viewBox="0 0 111 110" fill="none" xmlns="http://www.w3.org/2000/svg">
<path d="M84.6834 50.88C83.5034 49.34 82.0834 48.02 80.7434 46.7C77.3234 43.64 73.4434 41.44 70.1634 38.22C62.5434 30.76 60.8634 18.46 65.7234 9C60.8634 10.18 56.6234 12.82 53.0034 15.74C39.7634 26.36 34.5634 45.12 40.8034 61.2C41.0034 61.72 41.2034 62.22 41.2034 62.88C41.2034 64 40.4434 65.02 39.4234 65.44C38.2434 65.96 37.0234 65.64 36.0434 64.82C35.7434 64.58 35.5034 64.28 35.3234 63.96C29.5434 56.66 28.6234 46.18 32.5234 37.8C23.9834 44.74 19.3434 56.5 20.0034 67.58C20.3034 70.14 20.6234 72.68 21.4834 75.24C22.2034 78.3 23.5834 81.36 25.1034 84.08C30.6234 92.92 40.1634 99.26 50.4434 100.52C61.3834 101.9 73.0634 99.9 81.4434 92.34C90.7834 83.86 94.0634 70.28 89.2634 58.62L88.6034 57.3C87.5234 54.96 84.6634 50.86 84.6634 50.86L84.6834 50.88ZM68.5434 83.06C67.1034 84.28 64.7634 85.62 62.9234 86.12C57.2034 88.16 51.4834 85.3 48.1034 81.94C54.1834 80.52 57.8034 76.02 58.8834 71.46C59.7434 67.38 58.1234 64 57.4434 60.06C56.8234 56.28 56.9234 53.06 58.3034 49.54C59.2834 51.48 60.3034 53.42 61.5234 54.96C65.4634 60.06 71.6434 62.32 72.9634 69.26C73.1634 69.98 73.2634 70.7 73.2634 71.46C73.4234 75.64 71.5834 80.24 68.5034 83.06H68.5434Z" fill="white" stroke="white" stroke-width="2" stroke-linecap="round" stroke-linejoin="round"/>
</svg>
