<svg width="111" height="110" viewBox="0 0 111 110" fill="none" xmlns="http://www.w3.org/2000/svg">
<path d="M102.489 66.9717H93.8724C93.1391 66.9717 92.6074 66.4217 92.6074 65.7067V39.765C92.6074 39.0317 93.1574 38.5 93.8724 38.5H102.489C103.222 38.5 103.754 39.05 103.754 39.765V65.6883C103.754 66.4217 103.204 66.9533 102.489 66.9533V66.9717Z" fill="white"/>
<path d="M18.1561 67.0393H9.53941C8.80608 67.0393 8.27441 66.4893 8.27441 65.7743V39.8509C8.27441 39.1176 8.82441 38.5859 9.53941 38.5859H18.1561C18.8894 38.5859 19.4211 39.1359 19.4211 39.8509V65.7743C19.4211 66.5076 18.7794 67.0393 18.1561 67.0393Z" fill="white"/>
<path d="M84.906 39.5748C83.366 38.6765 63.511 25.0731 58.4327 23.8998C51.8877 22.6348 35.5893 39.8498 35.131 43.2965C34.3977 48.9798 40.7593 47.3848 41.566 47.2015C47.6527 45.7898 53.3543 39.4098 55.7927 39.3181C56.526 39.3181 63.3643 49.9148 77.591 66.6898L87.5277 65.0581C88.3527 64.9298 88.9393 64.2148 88.9393 63.3898V41.2615C88.9393 40.3265 88.1877 39.5748 87.2527 39.5748H84.8877H84.906Z" fill="white"/>
<path d="M80.2176 73.0355C80.0893 72.1371 77.9076 67.4071 77.6326 66.6921L55.8343 39.3205L49.4543 27.7338C48.2626 27.6788 46.4843 28.1555 44.4493 28.9621C44.4493 28.9621 44.4309 28.9621 44.4126 28.9621C44.3759 28.9621 44.3209 28.9988 44.2659 29.0171C37.6109 31.6388 27.6009 37.4871 24.5209 39.3388C23.9343 39.6871 23.5859 40.3288 23.5859 41.0071V64.4555C23.5859 65.3355 24.1726 66.0871 25.0159 66.3255C26.0243 66.6005 27.4726 67.2971 29.0309 68.9471C35.0993 75.5655 42.8176 84.6221 46.1726 85.7221C47.0709 85.9971 47.9876 86.0888 47.9876 86.0888C49.5276 86.0888 50.6093 85.5388 50.8843 85.4471C52.2409 84.7138 53.0659 83.7238 53.3409 83.1738C53.3409 83.1738 59.0609 89.9755 64.0293 81.7255C66.2109 82.9905 68.7409 82.9905 70.4643 81.5421C72.0959 80.2771 72.4626 78.3705 72.5543 77.8205C72.7376 77.9121 73.1043 78.0955 73.4526 78.1871C74.2776 78.4621 76.7159 79.2688 78.5309 78.0038C79.8876 77.0138 80.5293 75.0155 80.2543 73.0171L80.2176 73.0355Z" fill="white"/>
<path d="M64.2197 66.0859L72.4881 77.8376" stroke="#5112AD" stroke-width="2" stroke-linecap="round" stroke-linejoin="round"/>
<path d="M55.5547 69.8242L63.933 81.7409" stroke="#5112AD" stroke-width="2" stroke-linecap="round" stroke-linejoin="round"/>
<path d="M48.3359 76.1123L53.3409 83.2256" stroke="#5112AD" stroke-width="2" stroke-linecap="round" stroke-linejoin="round"/>
<path d="M52.2744 24.75C45.5094 29.7367 36.1265 41.0107 35.8331 43.284C35.0998 48.9673 41.4615 47.3723 42.2681 47.189C48.3548 45.7773 54.0565 39.3973 56.4948 39.3057L79.7744 67.8333" stroke="#5112AD" stroke-width="4" stroke-linecap="round" stroke-linejoin="round"/>
</svg>
