<svg width="111" height="110" viewBox="0 0 111 110" fill="none" xmlns="http://www.w3.org/2000/svg">
<path d="M18.7814 54.2234L95.1414 19.7434ZM95.1414 19.7434L82.6014 15.0034ZM95.1414 19.7434L90.4814 32.3234ZM88.8814 95.0034H74.3014V54.0634C74.3014 53.2834 74.6014 52.5434 75.1614 52.0034C75.7214 51.4634 76.4414 51.1434 77.2214 51.1434H85.9814C86.7614 51.1434 87.5014 51.4634 88.0414 52.0034C88.5814 52.5434 88.9014 53.3034 88.9014 54.0634V94.9834L88.8814 95.0034ZM59.7014 95.0034H45.1214V62.8234C45.1214 62.0434 45.4214 61.3034 45.9814 60.7634C46.5414 60.2234 47.2614 59.9034 48.0414 59.9034H56.8014C57.5814 59.9034 58.3214 60.2034 58.8614 60.7634C59.4014 61.3234 59.7214 62.0634 59.7214 62.8234V94.9834L59.7014 95.0034ZM30.5214 95.0034H15.9414V71.6234C15.9414 70.8434 16.2414 70.1034 16.8014 69.5634C17.3414 69.0234 18.0814 68.7034 18.8614 68.7034H27.6214C28.4014 68.7034 29.1414 69.0034 29.6814 69.5634C30.2214 70.1234 30.5414 70.8634 30.5414 71.6234V95.0034H30.5214Z" fill="white"/>
<path d="M18.7814 54.2234L95.1414 19.7434M95.1414 19.7434L82.6014 15.0034M95.1414 19.7434L90.4814 32.3234M88.8814 95.0034H74.3014V54.0634C74.3014 53.2834 74.6014 52.5434 75.1614 52.0034C75.7214 51.4634 76.4414 51.1434 77.2214 51.1434H85.9814C86.7614 51.1434 87.5014 51.4634 88.0414 52.0034C88.5814 52.5434 88.9014 53.3034 88.9014 54.0634V94.9834L88.8814 95.0034ZM59.7014 95.0034H45.1214V62.8234C45.1214 62.0434 45.4214 61.3034 45.9814 60.7634C46.5414 60.2234 47.2614 59.9034 48.0414 59.9034H56.8014C57.5814 59.9034 58.3214 60.2034 58.8614 60.7634C59.4014 61.3234 59.7214 62.0634 59.7214 62.8234V94.9834L59.7014 95.0034ZM30.5214 95.0034H15.9414V71.6234C15.9414 70.8434 16.2414 70.1034 16.8014 69.5634C17.3414 69.0234 18.0814 68.7034 18.8614 68.7034H27.6214C28.4014 68.7034 29.1414 69.0034 29.6814 69.5634C30.2214 70.1234 30.5414 70.8634 30.5414 71.6234V95.0034H30.5214Z" stroke="white" stroke-width="4" stroke-linecap="round" stroke-linejoin="round"/>
</svg>
