<svg width="100" height="100" viewBox="0 0 100 100" fill="none" xmlns="http://www.w3.org/2000/svg">
<g filter="url(#filter0_b_5_2748)">
<rect x="1.66667" y="1.66667" width="96.6667" height="96.6667" rx="48.3333" stroke="white" stroke-width="3.33333"/>
<path fill-rule="evenodd" clip-rule="evenodd" d="M78.6238 34.3749C79.0388 33.0099 78.6238 32.0049 76.6363 32.0049H70.074C68.404 32.0049 67.634 32.8724 67.2165 33.8299C67.2165 33.8299 63.8791 41.8199 59.1517 47.0099C57.6217 48.5149 56.9267 48.9924 56.0917 48.9924C55.6743 48.9924 55.0468 48.5149 55.0468 47.1474V34.3749C55.0468 32.7349 54.5868 32.0049 53.1968 32.0049H42.877C41.8345 32.0049 41.2071 32.7649 41.2071 33.4874C41.2071 35.0399 43.572 35.3999 43.8145 39.7699V49.2649C43.8145 51.3474 43.432 51.7249 42.597 51.7249C40.3721 51.7249 34.9597 43.6974 31.7473 34.5124C31.1248 32.7249 30.4948 32.0049 28.8173 32.0049H22.25C20.375 32.0049 20 32.8724 20 33.8299C20 35.5349 22.225 44.0049 30.3623 55.2074C35.7872 62.8574 43.4245 67.0049 50.3819 67.0049C54.5543 67.0049 55.0693 66.0849 55.0693 64.4974V58.7149C55.0693 56.8724 55.4643 56.5049 56.7867 56.5049C57.7617 56.5049 59.4292 56.9849 63.3241 60.6724C67.774 65.0449 68.5065 67.0049 71.0114 67.0049H77.5738C79.4488 67.0049 80.3887 66.0849 79.8487 64.2649C79.2538 62.4549 77.1288 59.8274 74.3114 56.7099C72.7814 54.9349 70.4864 53.0224 69.789 52.0649C68.8165 50.8374 69.094 50.2899 69.789 49.1974C69.789 49.1974 77.7888 38.1324 78.6213 34.3749H78.6238Z" fill="white"/>
</g>
<defs>
<filter id="filter0_b_5_2748" x="-333.333" y="-333.333" width="766.667" height="766.667" filterUnits="userSpaceOnUse" color-interpolation-filters="sRGB">
<feFlood flood-opacity="0" result="BackgroundImageFix"/>
<feGaussianBlur in="BackgroundImageFix" stdDeviation="166.667"/>
<feComposite in2="SourceAlpha" operator="in" result="effect1_backgroundBlur_5_2748"/>
<feBlend mode="normal" in="SourceGraphic" in2="effect1_backgroundBlur_5_2748" result="shape"/>
</filter>
</defs>
</svg>
