<svg width="100" height="100" viewBox="0 0 100 100" fill="none" xmlns="http://www.w3.org/2000/svg">
<g filter="url(#filter0_b_5_2751)">
<rect x="1.66667" y="1.66667" width="96.6667" height="96.6667" rx="48.3333" stroke="white" stroke-width="3.33333"/>
<path d="M50.1931 27.9941H50.5269C53.6096 28.0054 69.2293 28.1179 73.4408 29.2503C74.714 29.5959 75.8742 30.2695 76.8054 31.2039C77.7366 32.1382 78.4063 33.3006 78.7474 34.5748C79.1262 35.9996 79.3925 37.8857 79.5725 39.8318L79.61 40.2217L79.6925 41.1966L79.7225 41.5866C79.9662 45.0138 79.9962 48.2235 80 48.9246V49.2059C79.9962 49.9333 79.9625 53.3605 79.6925 56.9301L79.6625 57.3238L79.6287 57.7138C79.4412 59.8586 79.1637 61.9884 78.7474 63.5557C78.4073 64.8304 77.738 65.9933 76.8066 66.9279C75.8753 67.8624 74.7145 68.5357 73.4408 68.8802C69.0906 70.0501 52.5558 70.1326 50.2644 70.1364H49.7319C48.573 70.1364 43.7802 70.1139 38.7549 69.9414L38.1174 69.9189L37.7911 69.9039L37.1498 69.8776L36.5085 69.8514C32.3458 69.6677 28.3818 69.3714 26.5554 68.8765C25.2822 68.5322 24.1218 67.8595 23.1904 66.9257C22.2591 65.9919 21.5895 64.8298 21.2488 63.5557C20.8326 61.9921 20.555 59.8586 20.3675 57.7138L20.3375 57.3201L20.3075 56.9301C20.1224 54.3894 20.0199 51.8433 20 49.2959L20 48.8347C20.0075 48.0285 20.0375 45.2425 20.24 42.1678L20.2663 41.7816L20.2775 41.5866L20.3075 41.1966L20.39 40.2217L20.4275 39.8318C20.6075 37.8857 20.8738 35.9959 21.2526 34.5748C21.5927 33.3001 22.262 32.1372 23.1934 31.2026C24.1247 30.2681 25.2855 29.5948 26.5592 29.2503C28.3855 28.7628 32.3495 28.4628 36.5123 28.2754L37.1498 28.2491L37.7949 28.2266L38.1174 28.2154L38.7587 28.1891C42.3278 28.0743 45.8984 28.0105 49.4693 27.9979H50.1931V27.9941ZM44.0015 40.0305V58.0963L59.5912 49.0671L44.0015 40.0305Z" fill="white"/>
</g>
<defs>
<filter id="filter0_b_5_2751" x="-333.333" y="-333.333" width="766.667" height="766.667" filterUnits="userSpaceOnUse" color-interpolation-filters="sRGB">
<feFlood flood-opacity="0" result="BackgroundImageFix"/>
<feGaussianBlur in="BackgroundImageFix" stdDeviation="166.667"/>
<feComposite in2="SourceAlpha" operator="in" result="effect1_backgroundBlur_5_2751"/>
<feBlend mode="normal" in="SourceGraphic" in2="effect1_backgroundBlur_5_2751" result="shape"/>
</filter>
</defs>
</svg>
